<svg width="251" height="50" viewBox="0 0 251 50" fill="none" xmlns="http://www.w3.org/2000/svg">
<rect width="251" height="50" rx="10" fill="#203239"/>
<path d="M44.344 21.64V24.44H48.104V26.216H44.344V29.176H48.584V31H42.104V19.816H48.584V21.64H44.344ZM55.5156 31L53.6916 28.248L52.0756 31H49.6756L52.5716 26.552L49.6436 22.136H52.1716L53.9796 24.872L55.6116 22.136H58.0116L55.0996 26.552L58.0436 31H55.5156ZM61.5003 23.416C61.7883 23.0107 62.1829 22.6747 62.6843 22.408C63.1963 22.1307 63.7776 21.992 64.4283 21.992C65.1856 21.992 65.8683 22.1787 66.4763 22.552C67.0949 22.9253 67.5803 23.4587 67.9323 24.152C68.2949 24.8347 68.4763 25.6293 68.4763 26.536C68.4763 27.4427 68.2949 28.248 67.9323 28.952C67.5803 29.6453 67.0949 30.184 66.4763 30.568C65.8683 30.952 65.1856 31.144 64.4283 31.144C63.7776 31.144 63.2016 31.0107 62.7003 30.744C62.2096 30.4773 61.8096 30.1413 61.5003 29.736V35.224H59.2603V22.136H61.5003V23.416ZM66.1883 26.536C66.1883 26.0027 66.0763 25.544 65.8523 25.16C65.6389 24.7653 65.3509 24.4667 64.9883 24.264C64.6363 24.0613 64.2523 23.96 63.8363 23.96C63.4309 23.96 63.0469 24.0667 62.6843 24.28C62.3323 24.4827 62.0443 24.7813 61.8203 25.176C61.6069 25.5707 61.5003 26.0347 61.5003 26.568C61.5003 27.1013 61.6069 27.5653 61.8203 27.96C62.0443 28.3547 62.3323 28.6587 62.6843 28.872C63.0469 29.0747 63.4309 29.176 63.8363 29.176C64.2523 29.176 64.6363 29.0693 64.9883 28.856C65.3509 28.6427 65.6389 28.3387 65.8523 27.944C66.0763 27.5493 66.1883 27.08 66.1883 26.536ZM72.344 19.16V31H70.104V19.16H72.344ZM78.4931 31.144C77.6398 31.144 76.8718 30.9573 76.1891 30.584C75.5065 30.2 74.9678 29.6613 74.5731 28.968C74.1891 28.2747 73.9971 27.4747 73.9971 26.568C73.9971 25.6613 74.1945 24.8613 74.5891 24.168C74.9945 23.4747 75.5438 22.9413 76.2371 22.568C76.9305 22.184 77.7038 21.992 78.5571 21.992C79.4105 21.992 80.1838 22.184 80.8771 22.568C81.5705 22.9413 82.1145 23.4747 82.5091 24.168C82.9145 24.8613 83.1171 25.6613 83.1171 26.568C83.1171 27.4747 82.9091 28.2747 82.4931 28.968C82.0878 29.6613 81.5331 30.2 80.8291 30.584C80.1358 30.9573 79.3571 31.144 78.4931 31.144ZM78.4931 29.192C78.8985 29.192 79.2771 29.096 79.6291 28.904C79.9918 28.7013 80.2798 28.4027 80.4931 28.008C80.7065 27.6133 80.8131 27.1333 80.8131 26.568C80.8131 25.7253 80.5891 25.08 80.1411 24.632C79.7038 24.1733 79.1651 23.944 78.5251 23.944C77.8851 23.944 77.3465 24.1733 76.9091 24.632C76.4825 25.08 76.2691 25.7253 76.2691 26.568C76.2691 27.4107 76.4771 28.0613 76.8931 28.52C77.3198 28.968 77.8531 29.192 78.4931 29.192ZM87.0003 23.512C87.2883 23.0427 87.6616 22.6747 88.1203 22.408C88.5896 22.1413 89.1229 22.008 89.7203 22.008V24.36H89.1283C88.4243 24.36 87.8909 24.5253 87.5283 24.856C87.1763 25.1867 87.0003 25.7627 87.0003 26.584V31H84.7603V22.136H87.0003V23.512ZM99.469 26.376C99.469 26.696 99.4477 26.984 99.405 27.24H92.925C92.9783 27.88 93.2023 28.3813 93.597 28.744C93.9917 29.1067 94.477 29.288 95.053 29.288C95.885 29.288 96.477 28.9307 96.829 28.216H99.245C98.989 29.0693 98.4983 29.7733 97.773 30.328C97.0477 30.872 96.157 31.144 95.101 31.144C94.2477 31.144 93.4797 30.9573 92.797 30.584C92.125 30.2 91.597 29.6613 91.213 28.968C90.8397 28.2747 90.653 27.4747 90.653 26.568C90.653 25.6507 90.8397 24.8453 91.213 24.152C91.5863 23.4587 92.109 22.9253 92.781 22.552C93.453 22.1787 94.2263 21.992 95.101 21.992C95.9437 21.992 96.6957 22.1733 97.357 22.536C98.029 22.8987 98.5463 23.416 98.909 24.088C99.2823 24.7493 99.469 25.512 99.469 26.376ZM97.149 25.736C97.1383 25.16 96.9303 24.7013 96.525 24.36C96.1197 24.008 95.6237 23.832 95.037 23.832C94.4823 23.832 94.013 24.0027 93.629 24.344C93.2557 24.6747 93.0263 25.1387 92.941 25.736H97.149ZM107.157 19.16V31H104.917V19.16H107.157ZM117.61 26.376C117.61 26.696 117.588 26.984 117.546 27.24H111.066C111.119 27.88 111.343 28.3813 111.738 28.744C112.132 29.1067 112.618 29.288 113.194 29.288C114.026 29.288 114.618 28.9307 114.97 28.216H117.386C117.13 29.0693 116.639 29.7733 115.914 30.328C115.188 30.872 114.298 31.144 113.242 31.144C112.388 31.144 111.62 30.9573 110.938 30.584C110.266 30.2 109.738 29.6613 109.354 28.968C108.98 28.2747 108.794 27.4747 108.794 26.568C108.794 25.6507 108.98 24.8453 109.354 24.152C109.727 23.4587 110.25 22.9253 110.922 22.552C111.594 22.1787 112.367 21.992 113.242 21.992C114.084 21.992 114.836 22.1733 115.498 22.536C116.17 22.8987 116.687 23.416 117.05 24.088C117.423 24.7493 117.61 25.512 117.61 26.376ZM115.29 25.736C115.279 25.16 115.071 24.7013 114.666 24.36C114.26 24.008 113.764 23.832 113.178 23.832C112.623 23.832 112.154 24.0027 111.77 24.344C111.396 24.6747 111.167 25.1387 111.082 25.736H115.29ZM121.485 23.432C121.773 23.0053 122.167 22.6587 122.669 22.392C123.181 22.1253 123.762 21.992 124.413 21.992C125.17 21.992 125.853 22.1787 126.461 22.552C127.079 22.9253 127.565 23.4587 127.917 24.152C128.279 24.8347 128.461 25.6293 128.461 26.536C128.461 27.4427 128.279 28.248 127.917 28.952C127.565 29.6453 127.079 30.184 126.461 30.568C125.853 30.952 125.17 31.144 124.413 31.144C123.751 31.144 123.17 31.016 122.669 30.76C122.178 30.4933 121.783 30.152 121.485 29.736V31H119.245V19.16H121.485V23.432ZM126.173 26.536C126.173 26.0027 126.061 25.544 125.837 25.16C125.623 24.7653 125.335 24.4667 124.973 24.264C124.621 24.0613 124.237 23.96 123.821 23.96C123.415 23.96 123.031 24.0667 122.669 24.28C122.317 24.4827 122.029 24.7813 121.805 25.176C121.591 25.5707 121.485 26.0347 121.485 26.568C121.485 27.1013 121.591 27.5653 121.805 27.96C122.029 28.3547 122.317 28.6587 122.669 28.872C123.031 29.0747 123.415 29.176 123.821 29.176C124.237 29.176 124.621 29.0693 124.973 28.856C125.335 28.6427 125.623 28.3387 125.837 27.944C126.061 27.5493 126.173 27.08 126.173 26.536ZM131.224 21.08C130.83 21.08 130.499 20.9573 130.232 20.712C129.976 20.456 129.848 20.1413 129.848 19.768C129.848 19.3947 129.976 19.0853 130.232 18.84C130.499 18.584 130.83 18.456 131.224 18.456C131.619 18.456 131.944 18.584 132.2 18.84C132.467 19.0853 132.6 19.3947 132.6 19.768C132.6 20.1413 132.467 20.456 132.2 20.712C131.944 20.9573 131.619 21.08 131.224 21.08ZM132.328 22.136V31H130.088V22.136H132.328ZM139.534 22.008C140.206 22.008 140.803 22.1573 141.326 22.456C141.848 22.744 142.254 23.176 142.542 23.752C142.84 24.3173 142.99 25 142.99 25.8V31H140.75V26.104C140.75 25.4 140.574 24.8613 140.222 24.488C139.87 24.104 139.39 23.912 138.782 23.912C138.163 23.912 137.672 24.104 137.31 24.488C136.958 24.8613 136.782 25.4 136.782 26.104V31H134.542V19.16H136.782V23.24C137.07 22.856 137.454 22.5573 137.934 22.344C138.414 22.12 138.947 22.008 139.534 22.008ZM151.172 23.432C151.46 23.0053 151.855 22.6587 152.356 22.392C152.868 22.1253 153.449 21.992 154.1 21.992C154.857 21.992 155.54 22.1787 156.148 22.552C156.767 22.9253 157.252 23.4587 157.604 24.152C157.967 24.8347 158.148 25.6293 158.148 26.536C158.148 27.4427 157.967 28.248 157.604 28.952C157.252 29.6453 156.767 30.184 156.148 30.568C155.54 30.952 154.857 31.144 154.1 31.144C153.439 31.144 152.857 31.016 152.356 30.76C151.865 30.4933 151.471 30.152 151.172 29.736V31H148.932V19.16H151.172V23.432ZM155.86 26.536C155.86 26.0027 155.748 25.544 155.524 25.16C155.311 24.7653 155.023 24.4667 154.66 24.264C154.308 24.0613 153.924 23.96 153.508 23.96C153.103 23.96 152.719 24.0667 152.356 24.28C152.004 24.4827 151.716 24.7813 151.492 25.176C151.279 25.5707 151.172 26.0347 151.172 26.568C151.172 27.1013 151.279 27.5653 151.492 27.96C151.716 28.3547 152.004 28.6587 152.356 28.872C152.719 29.0747 153.103 29.176 153.508 29.176C153.924 29.176 154.308 29.0693 154.66 28.856C155.023 28.6427 155.311 28.3387 155.524 27.944C155.748 27.5493 155.86 27.08 155.86 26.536ZM159.2 26.536C159.2 25.64 159.376 24.8453 159.728 24.152C160.091 23.4587 160.576 22.9253 161.184 22.552C161.803 22.1787 162.491 21.992 163.248 21.992C163.909 21.992 164.485 22.1253 164.976 22.392C165.477 22.6587 165.877 22.9947 166.176 23.4V22.136H168.432V31H166.176V29.704C165.888 30.12 165.488 30.4667 164.976 30.744C164.475 31.0107 163.893 31.144 163.232 31.144C162.485 31.144 161.803 30.952 161.184 30.568C160.576 30.184 160.091 29.6453 159.728 28.952C159.376 28.248 159.2 27.4427 159.2 26.536ZM166.176 26.568C166.176 26.024 166.069 25.56 165.856 25.176C165.643 24.7813 165.355 24.4827 164.992 24.28C164.629 24.0667 164.24 23.96 163.824 23.96C163.408 23.96 163.024 24.0613 162.672 24.264C162.32 24.4667 162.032 24.7653 161.808 25.16C161.595 25.544 161.488 26.0027 161.488 26.536C161.488 27.0693 161.595 27.5387 161.808 27.944C162.032 28.3387 162.32 28.6427 162.672 28.856C163.035 29.0693 163.419 29.176 163.824 29.176C164.24 29.176 164.629 29.0747 164.992 28.872C165.355 28.6587 165.643 28.36 165.856 27.976C166.069 27.5813 166.176 27.112 166.176 26.568ZM175.532 22.008C176.588 22.008 177.441 22.344 178.092 23.016C178.742 23.6773 179.068 24.6053 179.068 25.8V31H176.828V26.104C176.828 25.4 176.652 24.8613 176.3 24.488C175.948 24.104 175.468 23.912 174.86 23.912C174.241 23.912 173.75 24.104 173.388 24.488C173.036 24.8613 172.86 25.4 172.86 26.104V31H170.62V22.136H172.86V23.24C173.158 22.856 173.537 22.5573 173.996 22.344C174.465 22.12 174.977 22.008 175.532 22.008ZM189.678 22.136L184.19 35.192H181.806L183.726 30.776L180.174 22.136H182.686L184.974 28.328L187.294 22.136H189.678ZM190.309 26.536C190.309 25.64 190.485 24.8453 190.837 24.152C191.2 23.4587 191.685 22.9253 192.293 22.552C192.912 22.1787 193.6 21.992 194.357 21.992C195.019 21.992 195.595 22.1253 196.085 22.392C196.587 22.6587 196.987 22.9947 197.285 23.4V22.136H199.541V31H197.285V29.704C196.997 30.12 196.597 30.4667 196.085 30.744C195.584 31.0107 195.003 31.144 194.341 31.144C193.595 31.144 192.912 30.952 192.293 30.568C191.685 30.184 191.2 29.6453 190.837 28.952C190.485 28.248 190.309 27.4427 190.309 26.536ZM197.285 26.568C197.285 26.024 197.179 25.56 196.965 25.176C196.752 24.7813 196.464 24.4827 196.101 24.28C195.739 24.0667 195.349 23.96 194.933 23.96C194.517 23.96 194.133 24.0613 193.781 24.264C193.429 24.4667 193.141 24.7653 192.917 25.16C192.704 25.544 192.597 26.0027 192.597 26.536C192.597 27.0693 192.704 27.5387 192.917 27.944C193.141 28.3387 193.429 28.6427 193.781 28.856C194.144 29.0693 194.528 29.176 194.933 29.176C195.349 29.176 195.739 29.0747 196.101 28.872C196.464 28.6587 196.752 28.36 196.965 27.976C197.179 27.5813 197.285 27.112 197.285 26.568ZM206.977 31L203.969 27.224V31H201.729V19.16H203.969V25.896L206.945 22.136H209.857L205.953 26.584L209.889 31H206.977Z" fill="white"/>
</svg>
