<svg width="84" height="30" viewBox="0 0 84 30" fill="none" xmlns="http://www.w3.org/2000/svg">
<rect width="30" height="30" rx="4" fill="#D6D5C7" fill-opacity="0.3"/>
<rect x="54.5" y="0.5" width="29" height="29" rx="3.5" stroke="#D6D5C7"/>
<path fill-rule="evenodd" clip-rule="evenodd" d="M17.0303 10.4697C17.3232 10.7626 17.3232 11.2374 17.0303 11.5303L13.5607 15L17.0303 18.4697C17.3232 18.7626 17.3232 19.2374 17.0303 19.5303C16.7374 19.8232 16.2626 19.8232 15.9697 19.5303L11.9697 15.5303C11.6768 15.2374 11.6768 14.7626 11.9697 14.4697L15.9697 10.4697C16.2626 10.1768 16.7374 10.1768 17.0303 10.4697Z" fill="#FF7527" fill-opacity="0.5"/>
<path fill-rule="evenodd" clip-rule="evenodd" d="M66.9697 10.4697C67.2626 10.1768 67.7374 10.1768 68.0303 10.4697L72.0303 14.4697C72.3232 14.7626 72.3232 15.2374 72.0303 15.5303L68.0303 19.5303C67.7374 19.8232 67.2626 19.8232 66.9697 19.5303C66.6768 19.2374 66.6768 18.7626 66.9697 18.4697L70.4393 15L66.9697 11.5303C66.6768 11.2374 66.6768 10.7626 66.9697 10.4697Z" fill="#FF7527"/>
</svg>
