<svg width="234" height="50" viewBox="0 0 234 50" fill="none" xmlns="http://www.w3.org/2000/svg">
<path d="M46.0002 22.8605C47.9166 27.0344 51.3266 30.3529 55.5661 32.1519L56.2457 32.4547C57.8005 33.1474 59.6283 32.6211 60.5766 31.2076L61.4647 29.8839C61.7535 29.4536 61.6656 28.8739 61.2622 28.5485L58.2503 26.1187C57.808 25.7618 57.1574 25.8449 56.819 26.3016L55.8873 27.5589C53.4965 26.3795 51.5554 24.4385 50.3761 22.0477L51.6333 21.1159C52.09 20.7775 52.1731 20.127 51.8162 19.6846L49.3864 16.6727C49.061 16.2694 48.4815 16.1814 48.0512 16.47L46.7183 17.3637C45.296 18.3174 44.7726 20.1602 45.4813 21.7192L45.9994 22.8588L46.0002 22.8605Z" fill="black"/>
<path d="M87.368 19.832V31H85.128V26.248H80.344V31H78.104V19.832H80.344V24.424H85.128V19.832H87.368ZM97.9408 22.136V31H95.6848V29.88C95.3968 30.264 95.0181 30.568 94.5488 30.792C94.0901 31.0053 93.5888 31.112 93.0448 31.112C92.3514 31.112 91.7381 30.968 91.2048 30.68C90.6714 30.3813 90.2501 29.9493 89.9408 29.384C89.6421 28.808 89.4928 28.1253 89.4928 27.336V22.136H91.7328V27.016C91.7328 27.72 91.9088 28.264 92.2608 28.648C92.6128 29.0213 93.0928 29.208 93.7008 29.208C94.3194 29.208 94.8048 29.0213 95.1568 28.648C95.5088 28.264 95.6848 27.72 95.6848 27.016V22.136H97.9408ZM102.391 23.432C102.679 23.0053 103.074 22.6587 103.575 22.392C104.087 22.1253 104.668 21.992 105.319 21.992C106.076 21.992 106.759 22.1787 107.367 22.552C107.986 22.9253 108.471 23.4587 108.823 24.152C109.186 24.8347 109.367 25.6293 109.367 26.536C109.367 27.4427 109.186 28.248 108.823 28.952C108.471 29.6453 107.986 30.184 107.367 30.568C106.759 30.952 106.076 31.144 105.319 31.144C104.658 31.144 104.076 31.016 103.575 30.76C103.084 30.4933 102.69 30.152 102.391 29.736V31H100.151V19.16H102.391V23.432ZM107.079 26.536C107.079 26.0027 106.967 25.544 106.743 25.16C106.53 24.7653 106.242 24.4667 105.879 24.264C105.527 24.0613 105.143 23.96 104.727 23.96C104.322 23.96 103.938 24.0667 103.575 24.28C103.223 24.4827 102.935 24.7813 102.711 25.176C102.498 25.5707 102.391 26.0347 102.391 26.568C102.391 27.1013 102.498 27.5653 102.711 27.96C102.935 28.3547 103.223 28.6587 103.575 28.872C103.938 29.0747 104.322 29.176 104.727 29.176C105.143 29.176 105.527 29.0693 105.879 28.856C106.242 28.6427 106.53 28.3387 106.743 27.944C106.967 27.5493 107.079 27.08 107.079 26.536ZM119.363 22.136V31H117.107V29.88C116.819 30.264 116.44 30.568 115.971 30.792C115.512 31.0053 115.011 31.112 114.467 31.112C113.773 31.112 113.16 30.968 112.627 30.68C112.093 30.3813 111.672 29.9493 111.363 29.384C111.064 28.808 110.915 28.1253 110.915 27.336V22.136H113.155V27.016C113.155 27.72 113.331 28.264 113.683 28.648C114.035 29.0213 114.515 29.208 115.123 29.208C115.741 29.208 116.227 29.0213 116.579 28.648C116.931 28.264 117.107 27.72 117.107 27.016V22.136H119.363ZM126.485 22.008C127.541 22.008 128.394 22.344 129.045 23.016C129.695 23.6773 130.021 24.6053 130.021 25.8V31H127.781V26.104C127.781 25.4 127.605 24.8613 127.253 24.488C126.901 24.104 126.421 23.912 125.813 23.912C125.194 23.912 124.703 24.104 124.341 24.488C123.989 24.8613 123.813 25.4 123.813 26.104V31H121.573V22.136H123.813V23.24C124.111 22.856 124.49 22.5573 124.949 22.344C125.418 22.12 125.93 22.008 126.485 22.008ZM135.623 21.992C136.284 21.992 136.866 22.1253 137.367 22.392C137.868 22.648 138.263 22.984 138.551 23.4V22.136H140.807V31.064C140.807 31.8853 140.642 32.616 140.311 33.256C139.98 33.9067 139.484 34.4187 138.823 34.792C138.162 35.176 137.362 35.368 136.423 35.368C135.164 35.368 134.13 35.0747 133.319 34.488C132.519 33.9013 132.066 33.1013 131.959 32.088H134.183C134.3 32.4933 134.551 32.8133 134.935 33.048C135.33 33.2933 135.804 33.416 136.359 33.416C137.01 33.416 137.538 33.2187 137.943 32.824C138.348 32.44 138.551 31.8533 138.551 31.064V29.688C138.263 30.104 137.863 30.4507 137.351 30.728C136.85 31.0053 136.274 31.144 135.623 31.144C134.876 31.144 134.194 30.952 133.575 30.568C132.956 30.184 132.466 29.6453 132.103 28.952C131.751 28.248 131.575 27.4427 131.575 26.536C131.575 25.64 131.751 24.8453 132.103 24.152C132.466 23.4587 132.951 22.9253 133.559 22.552C134.178 22.1787 134.866 21.992 135.623 21.992ZM138.551 26.568C138.551 26.024 138.444 25.56 138.231 25.176C138.018 24.7813 137.73 24.4827 137.367 24.28C137.004 24.0667 136.615 23.96 136.199 23.96C135.783 23.96 135.399 24.0613 135.047 24.264C134.695 24.4667 134.407 24.7653 134.183 25.16C133.97 25.544 133.863 26.0027 133.863 26.536C133.863 27.0693 133.97 27.5387 134.183 27.944C134.407 28.3387 134.695 28.6427 135.047 28.856C135.41 29.0693 135.794 29.176 136.199 29.176C136.615 29.176 137.004 29.0747 137.367 28.872C137.73 28.6587 138.018 28.36 138.231 27.976C138.444 27.5813 138.551 27.112 138.551 26.568ZM144.131 21.08C143.736 21.08 143.405 20.9573 143.139 20.712C142.883 20.456 142.755 20.1413 142.755 19.768C142.755 19.3947 142.883 19.0853 143.139 18.84C143.405 18.584 143.736 18.456 144.131 18.456C144.525 18.456 144.851 18.584 145.107 18.84C145.373 19.0853 145.507 19.3947 145.507 19.768C145.507 20.1413 145.373 20.456 145.107 20.712C144.851 20.9573 144.525 21.08 144.131 21.08ZM145.235 22.136V31H142.995V22.136H145.235ZM157.564 31L153.5 26.024V31H151.26V19.832H153.5V24.84L157.564 19.832H160.268L155.66 25.368L160.396 31H157.564ZM161.294 26.536C161.294 25.64 161.47 24.8453 161.822 24.152C162.184 23.4587 162.67 22.9253 163.278 22.552C163.896 22.1787 164.584 21.992 165.342 21.992C166.003 21.992 166.579 22.1253 167.07 22.392C167.571 22.6587 167.971 22.9947 168.27 23.4V22.136H170.526V31H168.27V29.704C167.982 30.12 167.582 30.4667 167.07 30.744C166.568 31.0107 165.987 31.144 165.326 31.144C164.579 31.144 163.896 30.952 163.278 30.568C162.67 30.184 162.184 29.6453 161.822 28.952C161.47 28.248 161.294 27.4427 161.294 26.536ZM168.27 26.568C168.27 26.024 168.163 25.56 167.95 25.176C167.736 24.7813 167.448 24.4827 167.086 24.28C166.723 24.0667 166.334 23.96 165.918 23.96C165.502 23.96 165.118 24.0613 164.766 24.264C164.414 24.4667 164.126 24.7653 163.902 25.16C163.688 25.544 163.582 26.0027 163.582 26.536C163.582 27.0693 163.688 27.5387 163.902 27.944C164.126 28.3387 164.414 28.6427 164.766 28.856C165.128 29.0693 165.512 29.176 165.918 29.176C166.334 29.176 166.723 29.0747 167.086 28.872C167.448 28.6587 167.736 28.36 167.95 27.976C168.163 27.5813 168.27 27.112 168.27 26.568ZM183.721 22.008C184.809 22.008 185.684 22.344 186.345 23.016C187.017 23.6773 187.353 24.6053 187.353 25.8V31H185.113V26.104C185.113 25.4107 184.937 24.8827 184.585 24.52C184.233 24.1467 183.753 23.96 183.145 23.96C182.537 23.96 182.052 24.1467 181.689 24.52C181.337 24.8827 181.161 25.4107 181.161 26.104V31H178.921V26.104C178.921 25.4107 178.745 24.8827 178.393 24.52C178.041 24.1467 177.561 23.96 176.953 23.96C176.335 23.96 175.844 24.1467 175.481 24.52C175.129 24.8827 174.953 25.4107 174.953 26.104V31H172.713V22.136H174.953V23.208C175.241 22.8347 175.609 22.5413 176.057 22.328C176.516 22.1147 177.017 22.008 177.561 22.008C178.255 22.008 178.873 22.1573 179.417 22.456C179.961 22.744 180.383 23.16 180.681 23.704C180.969 23.192 181.385 22.7813 181.929 22.472C182.484 22.1627 183.081 22.008 183.721 22.008ZM190.615 21.08C190.22 21.08 189.89 20.9573 189.623 20.712C189.367 20.456 189.239 20.1413 189.239 19.768C189.239 19.3947 189.367 19.0853 189.623 18.84C189.89 18.584 190.22 18.456 190.615 18.456C191.01 18.456 191.335 18.584 191.591 18.84C191.858 19.0853 191.991 19.3947 191.991 19.768C191.991 20.1413 191.858 20.456 191.591 20.712C191.335 20.9573 191.01 21.08 190.615 21.08ZM191.719 22.136V31H189.479V22.136H191.719Z" fill="#203239"/>
<rect x="0.5" y="0.5" width="233" height="49" rx="9.5" stroke="#203239"/>
</svg>
